<svg xmlns="http://www.w3.org/2000/svg" xmlns:xlink="http://www.w3.org/1999/xlink" version="1.1" x="0px" y="0px"
    viewBox="0 0 110 110" xml:space="preserve">
    <g transform="translate(-15 55) rotate(-45)">
        <path
            d="M55.955,0c-0.951,0-9.89,0-12.782,0c-0.812,0-1.3,0.44-1.541,0.637c-1.032,0.839-2.527,1.366-4.191,1.366   c-1.748,0-3.283-0.613-4.344-1.495C32.763,0.23,32.467,0,31.606,0s-4.383,0-4.383,0l-0.899,0.817v9.237l0.899,0.817   c0,0,3.546,0,4.605,0c1.058,0,1.45-0.426,1.715-0.612c1.013-0.709,2.385-1.146,3.898-1.146c1.768,0,3.345,0.597,4.378,1.529   c0.074,0.083,0.153,0.159,0.238,0.229C44.634,12.956,44.511,17,44.511,17l0.366,1h9.639l0.335-1c0,0-0.132-6.909,1.635-7.477   c8.991-2.889,13.944,4.771,16.513,10.3c0.725,1.559,0.677-0.414,0.677-0.414C71.551-0.127,57.427,0,55.955,0z" />
        <path
            d="M54.428,98.435c0,0.587-0.499,1.565-4.731,1.565c-4.232,0-4.776-0.755-4.776-1.565s0.571-9.178,0.571-15.933   c0-6.756-0.499-13.558-0.499-23.44c0-9.884,0.41-16.047,0.41-24.702S44.602,23.302,44.602,22c0-1.303,0.702-3,0.702-3h8.74   c0,0,0.702,1.608,0.702,2.911c0,1.302-0.801,2.875-0.801,12.525c0,9.649,0.41,14.569,0.41,24.624s-0.498,18.623-0.498,23.569   S54.428,97.848,54.428,98.435z" />
    </g>

    <path transform="translate(15 15)" fill="black"
      d="M 74.8892 6.4445 C 74.8892 6.4445 58.3648 31.9987 50.5992 30.5539 C 49.6059 30.283 49.1544 29.8315 48.5224 30.1024 C 45.1813 31.2763 25.045 54.844 21.704 58.7268 C 18.363 62.7901 9.875 76.1542 4.096 75.0706 C 1.4773 74.6191 0.5744 73.7161 0.1229 71.0975 C -0.8704 65.4088 12.2227 57.1917 16.4667 53.4895 C 20.3495 50.1485 44.1881 29.3801 45.091 26.8517 C 46.1746 23.9622 41.8403 22.698 49.1544 15.9257 C 50.9604 14.1198 67.7557 -0.1472 68.749 0.3042 C 69.0199 0.3945 69.1102 0.6654 69.2005 0.9363 C 68.9296 2.1102 50.8701 17.4608 51.5022 18.4541 C 51.6828 18.6346 51.7731 18.9055 52.044 18.9958 C 53.0372 19.4473 69.652 1.9296 70.7355 2.1102 C 71.0064 2.2005 71.0967 2.4714 71.0064 2.7423 C 70.8258 4.187 53.1275 20.0794 53.9402 20.8921 L 54.3014 21.2533 C 55.2044 22.1563 71.0064 4.3676 72.5415 4.0967 C 72.9027 4.0967 73.0833 4.2773 73.0833 4.4579 C 73.2639 5.5415 55.8365 22.2465 56.1976 23.1495 C 56.3782 23.3301 56.6491 23.601 56.7394 23.6913 C 57.7327 24.3234 73.1736 6.1736 74.3474 6.0833 C 74.528 6.0833 74.7989 6.1736 74.8892 6.4445 Z" />

</svg>