<svg xmlns="http://www.w3.org/2000/svg" xml:space="preserve" viewBox="0 0 16.933333 16.933333">
	<g stroke-width="1.13311" transform="matrix(0.23350186,0,0,0.23350186,-3.2141862,-3.2179184)">
		<path fill="#fc4a1a"
			d="m 44.935972,33.377562 c 0,0 -2.721421,-4.376762 -11.152455,-3.611338 -8.431035,0.765424 -20.903215,9.651812 -19.213594,23.66636 1.722574,14.287869 10.821713,28.040376 21.98806,28.210568 2.871666,0.04376 3.611099,-1.778081 8.393213,-1.77563 4.782113,0.0025 5.037017,1.745592 9.196757,1.753103 6.024316,0.01087 18.842695,-9.680474 21.906945,-26.237337 2.907605,-15.710475 -7.146734,-24.779131 -19.951246,-25.224433 -5.609208,-0.195073 -7.9056,3.386725 -11.16768,3.218707" />
		<path fill="none" stroke="#000" stroke-linecap="round" stroke-linejoin="round" stroke-width="3.39933"
			d="m 48.769716,36.331857 c 0,0 -2.721421,-4.376762 -11.152455,-3.611338 -8.431035,0.765424 -20.903215,9.651812 -19.213594,23.66636 1.722574,14.287869 10.821713,28.040376 21.98806,28.210568 2.871666,0.04376 3.611099,-1.778081 8.393213,-1.77563 4.782113,0.0025 5.037017,1.745592 9.196757,1.753103 6.024316,0.01087 18.842695,-9.680474 21.906945,-26.237337 C 82.796247,42.627108 72.741908,33.558452 59.937396,33.11315 54.328188,32.918077 48.20467,37.985431 44.94259,37.817413" />
		<path fill="none" stroke="#000" stroke-linecap="round" stroke-linejoin="round" stroke-width="3.39933"
			d="m 39.207864,18.743964 c 0,0 11.445838,6.477761 9.848743,17.332385" />
		<path fill="none" stroke="#000" stroke-linecap="round" stroke-linejoin="round" stroke-width="3.39933"
			d="m 64.966545,15.494141 c 0,0 -17.507031,2.637063 -15.555027,19.88191 4.968735,-0.875372 19.902672,-9.81512 15.555027,-19.88191 z" />
	</g>
</svg>