<?xml version="1.0" encoding="UTF-8" standalone="no"?>
<!-- Created with Inkscape (http://www.inkscape.org/) -->

<svg
   width="64"
   height="64"
   viewBox="0 0 16.933333 16.933333"
   version="1.1"
   id="svg1"
   inkscape:version="1.3.2 (091e20e, 2023-11-25, custom)"
   sodipodi:docname="calendar.svg"
   xml:space="preserve"
   xmlns:inkscape="http://www.inkscape.org/namespaces/inkscape"
   xmlns:sodipodi="http://sodipodi.sourceforge.net/DTD/sodipodi-0.dtd"
   xmlns="http://www.w3.org/2000/svg"
   xmlns:svg="http://www.w3.org/2000/svg">
	<sodipodi:namedview
   id="namedview1"
   pagecolor="#00d13f"
   bordercolor="#000000"
   borderopacity="0.25"
   inkscape:showpageshadow="2"
   inkscape:pageopacity="0.0"
   inkscape:pagecheckerboard="0"
   inkscape:deskcolor="#d1d1d1"
   inkscape:document-units="px"
   showguides="true"
   inkscape:zoom="11.822492"
   inkscape:cx="36.37135"
   inkscape:cy="44.449174"
   inkscape:window-width="2560"
   inkscape:window-height="1369"
   inkscape:window-x="1912"
   inkscape:window-y="-8"
   inkscape:window-maximized="1"
   inkscape:current-layer="layer4">
		
	</sodipodi:namedview>
	<defs
   id="defs1"><inkscape:path-effect
   effect="fillet_chamfer"
   id="path-effect4"
   is_visible="true"
   lpeversion="1"
   nodesatellites_param="F,0,0,1,0,0,0,1 @ F,0,0,1,0,0,0,1 @ F,0,1,1,0,1.0550738,0,1 @ F,0,0,1,0,0,0,1 @ F,0,0,1,0,0,0,1 @ F,0,0,1,0,1.0550738,0,1 @ F,0,0,1,0,0,0,1"
   radius="0"
   unit="px"
   method="auto"
   mode="F"
   chamfer_steps="1"
   flexible="false"
   use_knot_distance="true"
   apply_no_radius="true"
   apply_with_radius="true"
   only_selected="false"
   hide_knots="false" />
		<inkscape:path-effect
   effect="fillet_chamfer"
   id="path-effect19"
   is_visible="true"
   lpeversion="1"
   nodesatellites_param="F,0,0,1,0,0,0,1 @ F,0,0,1,0,0,0,1 @ F,0,0,1,0,0,0,1 @ F,0,0,1,0,0,0,1"
   radius="0"
   unit="px"
   method="auto"
   mode="F"
   chamfer_steps="1"
   flexible="false"
   use_knot_distance="true"
   apply_no_radius="true"
   apply_with_radius="true"
   only_selected="false"
   hide_knots="false" />
		<inkscape:path-effect
   effect="fillet_chamfer"
   id="path-effect18"
   is_visible="true"
   lpeversion="1"
   nodesatellites_param="F,0,0,1,0,0,0,1 @ F,0,0,1,0,0,0,1 @ F,0,0,1,0,0,0,1 @ F,0,0,1,0,0,0,1 @ F,0,0,1,0,0,0,1 @ F,0,0,1,0,0,0,1"
   radius="0"
   unit="px"
   method="auto"
   mode="F"
   chamfer_steps="1"
   flexible="false"
   use_knot_distance="true"
   apply_no_radius="true"
   apply_with_radius="true"
   only_selected="false"
   hide_knots="false" />
		<inkscape:path-effect
   effect="fillet_chamfer"
   id="path-effect15"
   is_visible="true"
   lpeversion="1"
   nodesatellites_param="F,0,0,1,0,0,0,1 @ F,0,0,1,0,0,0,1 @ F,0,0,1,0,0,0,1 @ F,0,0,1,0,0,0,1 @ F,0,0,1,0,0,0,1 @ F,0,0,1,0,0,0,1"
   radius="0"
   unit="px"
   method="auto"
   mode="F"
   chamfer_steps="1"
   flexible="false"
   use_knot_distance="true"
   apply_no_radius="true"
   apply_with_radius="true"
   only_selected="false"
   hide_knots="false" />
		<inkscape:path-effect
   effect="fillet_chamfer"
   id="path-effect11"
   is_visible="true"
   lpeversion="1"
   nodesatellites_param="F,0,0,1,0,0,0,1 @ F,0,0,1,0,0,0,1 @ F,0,0,1,0,0,0,1 @ F,0,0,1,0,0,0,1 @ F,0,0,1,0,0,0,1 @ F,0,0,1,0,0,0,1"
   radius="0"
   unit="px"
   method="auto"
   mode="F"
   chamfer_steps="1"
   flexible="false"
   use_knot_distance="true"
   apply_no_radius="true"
   apply_with_radius="true"
   only_selected="false"
   hide_knots="false" />
	</defs>
	
	<g
   inkscape:groupmode="layer"
   id="layer4"
   inkscape:label="Calendar"
   transform="translate(-0.04444978,-0.02522462)">
		
	<rect
   style="fill:#fc4a1a;fill-opacity:1;stroke:none;stroke-width:0.79375;stroke-linecap:round;stroke-linejoin:round;stroke-opacity:1"
   id="rect5"
   width="14.39012"
   height="3.7166936"
   x="2.1817076"
   y="4.471983" /><g
   id="g5"
   transform="translate(0.10786428,-0.00403394)"><path
     id="rect1"
     style="fill:none;stroke:#000000;stroke-width:0.79375;stroke-linecap:round;stroke-linejoin:round"
     d="m 13.494624,3.5164516 h 2.103688 V 15.556707 H 1.208192 V 3.5164516 h 2.2603456 m 1.7903726,0 h 2.3274841 m 1.7903726,0 h 2.3274841"
     sodipodi:nodetypes="cccccccccc" /><path
     style="fill:none;stroke:#000000;stroke-width:0.79375;stroke-linecap:round;stroke-linejoin:round;stroke-opacity:1"
     d="m 1.208192,7.2331451 h 14.39012"
     id="path1" /><rect
     style="fill:none;stroke:#000000;stroke-width:0.79375;stroke-linecap:round;stroke-linejoin:round;stroke-opacity:1"
     id="rect2"
     width="1.7903726"
     height="4.2297554"
     x="3.4685376"
     y="1.4351431" /><rect
     style="fill:none;stroke:#000000;stroke-width:0.79375;stroke-linecap:round;stroke-linejoin:round;stroke-opacity:1"
     id="rect3"
     width="1.7903726"
     height="4.2297554"
     x="7.5863943"
     y="1.4351431" /><rect
     style="fill:none;stroke:#000000;stroke-width:0.79375;stroke-linecap:round;stroke-linejoin:round;stroke-opacity:1"
     id="rect4"
     width="1.7903726"
     height="4.2297554"
     x="11.704251"
     y="1.4351431" /></g><path
   style="font-weight:bold;font-size:6.29705px;font-family:'Edu SA Beginner';-inkscape-font-specification:'Edu SA Beginner Bold';display:none;stroke-width:0.793746;stroke-linecap:round;stroke-linejoin:round"
   d="m 3.1097752,13.714983 q -0.1007528,0 -0.1952086,-0.05667 -0.094456,-0.05667 -0.125941,-0.163723 -0.037782,-0.10705 0.031485,-0.258179 L 4.847761,9.0992449 q 0.056673,-0.119644 0.125941,-0.1826145 0.075565,-0.062971 0.2329908,-0.062971 0.2203968,0 0.3022584,0.081862 0.081862,0.081862 0.1007528,0.2455849 l 0.3400407,3.1863077 -0.050376,-0.01889 1.5742625,-3.2429813 q 0.062971,-0.125941 0.1637233,-0.1889115 0.1070499,-0.062971 0.2833673,-0.062971 0.1889115,0 0.2392879,0.081862 0.056673,0.081862 0.075565,0.2455849 l 0.4533876,4.1875389 q 0.018891,0.144832 -0.081862,0.245585 -0.094456,0.100753 -0.258179,0.100753 -0.1763174,0 -0.2896643,-0.08816 -0.1070499,-0.09446 -0.119644,-0.2141 l -0.3085554,-3.154822 0.044079,0.02519 -1.5427772,3.198902 q -0.031485,0.06297 -0.1133469,0.151129 -0.081862,0.08186 -0.3085555,0.08186 -0.1637233,0 -0.258179,-0.08816 -0.094456,-0.08816 -0.1070499,-0.2141 l -0.3400407,-3.154822 0.050376,0.02519 -1.511292,3.186308 q -0.062971,0.132238 -0.2015056,0.188911 -0.132238,0.05667 -0.2329908,0.05667 z m 7.0275088,0.0063 q -0.3337441,0 -0.5667349,-0.163724 -0.2266938,-0.163723 -0.3274466,-0.465981 -0.1007528,-0.302259 -0.062971,-0.717864 0.069268,-0.629705 0.3904171,-0.988637 0.3274466,-0.365229 0.8249134,-0.365229 0.352635,0 0.585626,0.163724 0.232991,0.163723 0.333744,0.465981 0.10705,0.302259 0.06297,0.717864 -0.04408,0.415605 -0.207802,0.724161 -0.163724,0.302258 -0.4282,0.465981 -0.258179,0.163724 -0.604516,0.163724 z m 0.02519,-0.673785 q 0.125941,0 0.220396,-0.08816 0.100753,-0.09446 0.163724,-0.258179 0.06927,-0.170021 0.09445,-0.403012 0.01889,-0.138535 0.0126,-0.251882 -0.0063,-0.113346 -0.04408,-0.188911 -0.03148,-0.08186 -0.08816,-0.119644 -0.05667,-0.04408 -0.132239,-0.04408 -0.182614,0 -0.314852,0.201505 -0.1259411,0.195209 -0.1637234,0.547844 -0.025188,0.182614 -0.0063,0.321149 0.025188,0.138535 0.088159,0.2141 0.069268,0.06927 0.1700204,0.06927 z m 2.040239,0.667488 q -0.195208,0 -0.27707,-0.113347 -0.07556,-0.119644 -0.05667,-0.27707 l 0.2141,-1.914304 q 0.01889,-0.163723 0.125941,-0.239287 0.113346,-0.07556 0.289664,-0.07556 0.182614,0 0.258179,0.100753 0.07556,0.09445 0.06297,0.258179 l -0.226693,1.926897 q -0.0063,0.113347 -0.08186,0.226694 -0.06927,0.10705 -0.308556,0.10705 z m 1.486104,0 q -0.214099,0 -0.289664,-0.113347 -0.07556,-0.119644 -0.05667,-0.27707 l 0.163723,-1.36646 q 0.01259,-0.132238 -0.01259,-0.195209 -0.01889,-0.06927 -0.08186,-0.06927 -0.07556,0 -0.283367,0.163723 -0.207803,0.163723 -0.49117,0.617111 l 0.100753,-0.881587 q 0.220396,-0.283367 0.440793,-0.4282 0.220397,-0.144832 0.434497,-0.144832 0.333743,0 0.503764,0.264476 0.176317,0.264477 0.113347,0.717864 l -0.170021,1.36646 q -0.01889,0.119644 -0.100753,0.232991 -0.07556,0.113347 -0.270773,0.113347 z"
   id="text5"
   aria-label="Mon" /><path
   d="m 7.8457768,13.422886 q 0,0.170929 -0.1114757,0.282404 -0.1040441,0.104045 -0.2972687,0.104045 H 5.1703589 q -0.1709294,0 -0.2675417,-0.104045 -0.096612,-0.104044 -0.089181,-0.267541 0.014864,-0.163498 0.1486343,-0.334427 0.2675418,-0.334428 0.5202201,-0.64656 0.2526784,-0.312132 0.4681982,-0.579674 0.2229514,-0.267542 0.4013127,-0.483062 0.1857929,-0.222951 0.312132,-0.379017 0.1337709,-0.156066 0.1932246,-0.230383 0.1412027,-0.185793 0.2526784,-0.356723 0.1189074,-0.178361 0.1857929,-0.334427 0.074317,-0.1634975 0.074317,-0.2749732 0,-0.1189075 -0.1189074,-0.1857929 -0.1114757,-0.066885 -0.3121321,-0.066885 -0.2452467,0 -0.5276519,0.096612 Q 6.1290503,9.7516173 5.9209623,9.944842 5.7351694,10.115771 5.534513,10.093476 5.3412884,10.063749 5.2521078,9.9522737 5.1629272,9.8259345 5.1554955,9.6773002 q 0,-0.1486343 0.1783612,-0.3121321 0.1783612,-0.1634978 0.4533347,-0.2898369 0.2824052,-0.1337709 0.601969,-0.2080881 0.3195638,-0.074317 0.6094008,-0.074317 0.3938809,0 0.6688544,0.1263392 0.2824053,0.1263391 0.4310396,0.3641541 0.156066,0.2303831 0.156066,0.549947 0,0.3121326 -0.2080881,0.7134446 -0.208088,0.393881 -0.6316959,0.921533 -0.089181,0.111475 -0.2452466,0.297268 -0.1486343,0.178362 -0.3492907,0.416177 -0.2006563,0.237814 -0.4236078,0.512788 -0.2229515,0.274974 -0.4533347,0.557378 L 5.8466451,13.0513 h 1.5309335 q 0.2229516,0 0.341859,0.09661 0.1263392,0.09661 0.1263392,0.274975 z m 2.3855882,0.39388 q -0.431039,0 -0.7506032,-0.185793 -0.3121321,-0.185793 -0.4830616,-0.535084 -0.1634978,-0.34929 -0.1634978,-0.82492 0,-1.077599 0.2452467,-1.857929 Q 9.3321275,9.6327099 9.7928938,9.2165338 10.261092,8.792926 10.90022,8.792926 q 0.26011,0 0.512788,0.1114757 0.26011,0.104044 0.505357,0.3195638 0.156066,0.1412026 0.156066,0.2898369 0.0074,0.1412026 -0.133771,0.2749735 -0.148634,0.1560661 -0.282405,0.1412026 -0.12634,-0.014864 -0.34186,-0.1783612 -0.09661,-0.081749 -0.215519,-0.1263392 -0.118907,-0.04459 -0.252678,-0.04459 -0.356723,0 -0.616833,0.3269955 -0.2601097,0.3269954 -0.4013128,0.9289644 -0.1412024,0.594538 -0.1412024,1.42689 0,0.34929 0.156066,0.557378 0.1560662,0.200657 0.4310402,0.200657 0.208087,0 0.364153,-0.104044 0.156067,-0.104044 0.245247,-0.297269 0.08918,-0.193224 0.09661,-0.453334 0.0074,-0.349291 -0.141203,-0.542515 -0.141203,-0.200657 -0.401313,-0.200657 -0.215519,0 -0.386449,0.111476 -0.1709298,0.111476 -0.2675416,0.3047 -0.096613,0.185794 -0.096613,0.423608 L 9.5253521,11.817634 q 0,-0.341859 0.156066,-0.609401 0.1560663,-0.267541 0.4161759,-0.423607 0.260111,-0.156066 0.572242,-0.156066 0.579674,0 0.899238,0.386449 0.319564,0.38645 0.297269,1.047872 -0.0223,0.542515 -0.230384,0.936397 -0.200656,0.39388 -0.557378,0.6094 -0.356723,0.208088 -0.847216,0.208088 z"
   id="text1"
   style="font-weight:bold;font-size:9.21944px;font-family:'Edu SA Beginner';-inkscape-font-specification:'Edu SA Beginner Bold';stroke-width:0.793749;stroke-linecap:round;stroke-linejoin:round"
   aria-label="26" /></g>
</svg>
