<?xml version="1.0" encoding="UTF-8" standalone="no"?>
<!-- Created with Inkscape (http://www.inkscape.org/) -->

<svg
   width="64"
   height="64"
   viewBox="0 0 16.933333 16.933333"
   version="1.1"
   id="svg1"
   inkscape:version="1.3.2 (091e20e, 2023-11-25, custom)"
   sodipodi:docname="clipboard.svg"
   xml:space="preserve"
   xmlns:inkscape="http://www.inkscape.org/namespaces/inkscape"
   xmlns:sodipodi="http://sodipodi.sourceforge.net/DTD/sodipodi-0.dtd"
   xmlns="http://www.w3.org/2000/svg"
   xmlns:svg="http://www.w3.org/2000/svg">
	<sodipodi:namedview
   id="namedview1"
   pagecolor="#00d13f"
   bordercolor="#000000"
   borderopacity="0.25"
   inkscape:showpageshadow="2"
   inkscape:pageopacity="0.0"
   inkscape:pagecheckerboard="0"
   inkscape:deskcolor="#d1d1d1"
   inkscape:document-units="px"
   showguides="true"
   inkscape:zoom="11.822492"
   inkscape:cx="20.427165"
   inkscape:cy="41.827053"
   inkscape:window-width="2560"
   inkscape:window-height="1369"
   inkscape:window-x="1912"
   inkscape:window-y="-8"
   inkscape:window-maximized="1"
   inkscape:current-layer="g13">
		
	</sodipodi:namedview>
	<defs
   id="defs1"><inkscape:path-effect
   effect="fillet_chamfer"
   id="path-effect4"
   is_visible="true"
   lpeversion="1"
   nodesatellites_param="F,0,0,1,0,0,0,1 @ F,0,0,1,0,0,0,1 @ F,0,1,1,0,1.0550738,0,1 @ F,0,0,1,0,0,0,1 @ F,0,0,1,0,0,0,1 @ F,0,0,1,0,1.0550738,0,1 @ F,0,0,1,0,0,0,1"
   radius="0"
   unit="px"
   method="auto"
   mode="F"
   chamfer_steps="1"
   flexible="false"
   use_knot_distance="true"
   apply_no_radius="true"
   apply_with_radius="true"
   only_selected="false"
   hide_knots="false" />
		<inkscape:path-effect
   effect="fillet_chamfer"
   id="path-effect19"
   is_visible="true"
   lpeversion="1"
   nodesatellites_param="F,0,0,1,0,0,0,1 @ F,0,0,1,0,0,0,1 @ F,0,0,1,0,0,0,1 @ F,0,0,1,0,0,0,1"
   radius="0"
   unit="px"
   method="auto"
   mode="F"
   chamfer_steps="1"
   flexible="false"
   use_knot_distance="true"
   apply_no_radius="true"
   apply_with_radius="true"
   only_selected="false"
   hide_knots="false" />
		<inkscape:path-effect
   effect="fillet_chamfer"
   id="path-effect18"
   is_visible="true"
   lpeversion="1"
   nodesatellites_param="F,0,0,1,0,0,0,1 @ F,0,0,1,0,0,0,1 @ F,0,0,1,0,0,0,1 @ F,0,0,1,0,0,0,1 @ F,0,0,1,0,0,0,1 @ F,0,0,1,0,0,0,1"
   radius="0"
   unit="px"
   method="auto"
   mode="F"
   chamfer_steps="1"
   flexible="false"
   use_knot_distance="true"
   apply_no_radius="true"
   apply_with_radius="true"
   only_selected="false"
   hide_knots="false" />
		<inkscape:path-effect
   effect="fillet_chamfer"
   id="path-effect15"
   is_visible="true"
   lpeversion="1"
   nodesatellites_param="F,0,0,1,0,0,0,1 @ F,0,0,1,0,0,0,1 @ F,0,0,1,0,0,0,1 @ F,0,0,1,0,0,0,1 @ F,0,0,1,0,0,0,1 @ F,0,0,1,0,0,0,1"
   radius="0"
   unit="px"
   method="auto"
   mode="F"
   chamfer_steps="1"
   flexible="false"
   use_knot_distance="true"
   apply_no_radius="true"
   apply_with_radius="true"
   only_selected="false"
   hide_knots="false" />
		<inkscape:path-effect
   effect="fillet_chamfer"
   id="path-effect11"
   is_visible="true"
   lpeversion="1"
   nodesatellites_param="F,0,0,1,0,0,0,1 @ F,0,0,1,0,0,0,1 @ F,0,0,1,0,0,0,1 @ F,0,0,1,0,0,0,1 @ F,0,0,1,0,0,0,1 @ F,0,0,1,0,0,0,1"
   radius="0"
   unit="px"
   method="auto"
   mode="F"
   chamfer_steps="1"
   flexible="false"
   use_knot_distance="true"
   apply_no_radius="true"
   apply_with_radius="true"
   only_selected="false"
   hide_knots="false" />
	</defs>
	<g
   inkscape:groupmode="layer"
   id="layer2"
   inkscape:label="Layer 2"
   style="display:none"
   sodipodi:insensitive="true">
		<g
   id="g20">
			<rect
   style="fill:none;stroke:#000000;stroke-width:0.661458;stroke-linecap:round;stroke-linejoin:round;stroke-dasharray:none"
   id="rect19"
   width="4.5248241"
   height="1.2529863"
   x="11.250047"
   y="2.8820691"
   sodipodi:type="rect"
   ry="0.62649316" />
			<path
   style="fill:none;stroke:#000000;stroke-width:0.661458;stroke-linecap:round;stroke-linejoin:round;stroke-dasharray:none"
   d="M 1.4526919,1.5719144 H 5.644398"
   id="path19" />
			<rect
   style="fill:none;stroke:#000000;stroke-width:0.661458;stroke-linecap:round;stroke-linejoin:round;stroke-dasharray:none"
   id="rect20"
   width="16.311951"
   height="4.7257204"
   x="0.29023623"
   y="0.31442696" />
			<path
   style="fill:none;stroke:#000000;stroke-width:0.661458;stroke-linecap:round;stroke-linejoin:round;stroke-dasharray:none"
   d="M 1.4526919,2.677287 H 9.3718111"
   id="path20"
   sodipodi:nodetypes="cc" />
		</g>
		<g
   id="g22"
   transform="translate(0.02045492,5.7893793)">
			<rect
   style="fill:none;stroke:#000000;stroke-width:0.661458;stroke-linecap:round;stroke-linejoin:round;stroke-dasharray:none"
   id="rect21"
   width="4.5248241"
   height="1.2529863"
   x="11.250047"
   y="2.8820691"
   sodipodi:type="rect"
   ry="0.62649316" />
			<path
   style="fill:none;stroke:#000000;stroke-width:0.661458;stroke-linecap:round;stroke-linejoin:round;stroke-dasharray:none"
   d="m 1.4526919,1.5719144 6.755325,0"
   id="path21"
   sodipodi:nodetypes="cc" />
			<rect
   style="fill:none;stroke:#000000;stroke-width:0.661458;stroke-linecap:round;stroke-linejoin:round;stroke-dasharray:none"
   id="rect22"
   width="16.311951"
   height="4.7257204"
   x="0.29023623"
   y="0.31442696" />
			<path
   style="fill:none;stroke:#000000;stroke-width:0.661458;stroke-linecap:round;stroke-linejoin:round;stroke-dasharray:none"
   d="M 1.4526919,2.677287 H 7.3145861"
   id="path22"
   sodipodi:nodetypes="cc" />
		</g>
		<g
   id="g24"
   transform="translate(4.1707402e-4,11.562457)">
			<rect
   style="fill:none;stroke:#000000;stroke-width:0.661458;stroke-linecap:round;stroke-linejoin:round;stroke-dasharray:none"
   id="rect23"
   width="4.5248241"
   height="1.2529863"
   x="11.250047"
   y="2.8820691"
   sodipodi:type="rect"
   ry="0.62649316" />
			<path
   style="fill:none;stroke:#000000;stroke-width:0.661459;stroke-linecap:round;stroke-linejoin:round;stroke-dasharray:none"
   d="m 1.4522753,1.5882165 c 0.2859861,0 1.2208873,0 2.5177592,0"
   id="path23"
   sodipodi:nodetypes="cc" />
			<rect
   style="fill:none;stroke:#000000;stroke-width:0.661458;stroke-linecap:round;stroke-linejoin:round;stroke-dasharray:none"
   id="rect24"
   width="16.311951"
   height="4.7257204"
   x="0.29023623"
   y="0.31442696" />
			<path
   style="fill:none;stroke:#000000;stroke-width:0.661457;stroke-linecap:round;stroke-linejoin:round;stroke-dasharray:none"
   d="M 1.4522743,2.6856793 H 9.162419"
   id="path24"
   sodipodi:nodetypes="cc" />
		</g>
		<g
   inkscape:groupmode="layer"
   id="layer3"
   inkscape:label="Apple" />
	</g>
	<g
   inkscape:groupmode="layer"
   id="layer4"
   inkscape:label="Apple 1"
   transform="translate(-0.04444978,-0.02522462)">
		<g
   id="g25"
   transform="matrix(0.23350186,0,0,0.23350186,-3.2141862,-3.2179184)"
   style="display:none;stroke-width:1.13311"
   sodipodi:insensitive="true">
			<path
   style="fill:#fc4a1a;fill-opacity:1;stroke:none;stroke-width:3.39933;stroke-linecap:round;stroke-linejoin:round;stroke-dasharray:none"
   d="m 44.935972,33.377562 c 0,0 -2.721421,-4.376762 -11.152455,-3.611338 -8.431035,0.765424 -20.903215,9.651812 -19.213594,23.66636 1.722574,14.287869 10.821713,28.040376 21.98806,28.210568 2.871666,0.04376 3.611099,-1.778081 8.393213,-1.77563 4.782113,0.0025 5.037017,1.745592 9.196757,1.753103 6.024316,0.01087 18.842695,-9.680474 21.906945,-26.237337 2.907605,-15.710475 -7.146734,-24.779131 -19.951246,-25.224433 -5.609208,-0.195073 -7.9056,3.386725 -11.16768,3.218707"
   id="path29"
   sodipodi:nodetypes="czsszsssc" />
			<path
   d="m 73.57,31.078 c -2.9375,-2.0742 -6.3633,-3.3555 -9.9414,-3.707 1.4688,-1.0898 2.7148,-2.4453 3.6719,-4 1.5742,-2.6289 2.3008,-5.6758 2.0781,-8.7305 -0.09375,-0.57031 -0.58203,-0.98828 -1.1602,-1 -3.7383,0.09375 -7.4258,0.92969 -10.84,2.4609 -3.9219,2.0195 -6.8867,5.5117 -8.25,9.707 -1.1094,-2.5312 -2.3789,-4.8789 -2.8086,-5.6602 -0.15234,-0.27734 -0.41406,-0.47656 -0.71875,-0.55859 -0.3125,-0.07422 -0.63672,-0.01563 -0.90234,0.16016 l -2.1914,1.4297 h 0.0039 c -0.52734,0.34375 -0.67578,1.0547 -0.33203,1.582 0.34375,0.52734 1.0547,0.67188 1.582,0.32812 l 1.1484,-0.75 c 1.2695,2.3789 2.3789,4.8438 3.3203,7.3711 -2.6875,-1.8164 -5.832,-2.832 -9.0703,-2.9297 -5.1602,-0.15234 -10.281,2.2188 -15.16,6.8984 -12.73,12.121 -9.4609,32.051 1,44.32 1.3086,1.5625 2.7773,2.9844 4.3789,4.2383 5,3.8711 9.6211,4.2305 12.609,3.8281 0.67969,-0.08984 1.4102,-0.25 1.4102,-0.25 v 0.0039 c 0.92187,-0.21094 1.8281,-0.48437 2.7109,-0.82031 1.2773,-0.58594 2.6758,-0.875 4.082,-0.83984 1.3086,0.19531 2.5859,0.55078 3.8086,1.0586 0.94922,0.37109 1.9141,0.68359 2.8984,0.94141 0.78516,0.1875 1.5859,0.28125 2.3906,0.28125 9,0 17.879,-11.16 18.281,-11.672 4.3086,-5.5664 6.6797,-12.391 6.75,-19.43 0,-3.918 -0.62109,-17.281 -10.75,-24.262 z M 58.429,18.129 c 2.7422,-1.2578 5.6914,-2.0117 8.6992,-2.2188 -0.02734,2.2031 -0.64453,4.3594 -1.7773,6.25 -1.6094,2.5898 -4.0938,4.5117 -7,5.418 -2.6562,0.49219 -5.1914,1.4766 -7.4805,2.9023 -0.05078,-1.3516 0.11328,-2.7031 0.48828,-4 1.168,-3.6055 3.707,-6.6055 7.0703,-8.3516 z m 17.301,55.23 c -0.10156,0.12109 -10,12.609 -18.34,10.578 v 0.0039 c -0.89844,-0.23047 -1.7812,-0.51953 -2.6406,-0.86328 -1.3789,-0.57031 -2.8242,-0.97266 -4.3008,-1.1992 -0.26562,-0.01172 -0.53125,-0.01172 -0.80078,0 -1.4883,0.07422 -2.957,0.41406 -4.3281,1 -0.76953,0.29688 -1.5586,0.54688 -2.3594,0.74219 0,0 -0.64844,0.14062 -1.2188,0.21875 -2.5586,0.32812 -6.5312,0 -10.93,-3.3789 h -0.0039 c -1.4648,-1.1602 -2.8047,-2.4727 -4,-3.9102 -9.8008,-11.461 -12.949,-30 -1.2383,-41.191 10.828,-10.359 19.508,-5.3594 22.43,-3.0078 -0.71875,0.44922 -1.5352,0.71875 -2.3789,0.78906 -0.45312,-0.01172 -0.89844,-0.12109 -1.3008,-0.32031 -0.37109,-0.16016 -0.73047,-0.33984 -1.1016,-0.51953 -0.71875,-0.40234 -1.4766,-0.73828 -2.2578,-1 -1.582,-0.58594 -3.3516,-0.36719 -4.7422,0.58984 -0.50781,0.375 -0.61719,1.0859 -0.25,1.5977 0.37109,0.50781 1.082,0.62109 1.5898,0.25 0.82031,-0.52734 1.8477,-0.625 2.75,-0.25781 0.65234,0.22266 1.2852,0.49609 1.8906,0.82031 0.41016,0.19922 0.80859,0.39844 1.2188,0.57812 h 0.0039 c 0.66406,0.31641 1.3906,0.48438 2.1289,0.5 h 0.14062 c 1.7852,-0.16016 3.4766,-0.85547 4.8594,-2 3.3281,-2.5508 7.4219,-3.9102 11.621,-3.8477 3.6367,0.13281 7.1562,1.3398 10.109,3.4688 9.1992,6.3008 9.7188,18.672 9.7188,22.309 -0.06641,6.5391 -2.2695,12.879 -6.2695,18.051 z"
   id="path1"
   style="display:none;opacity:0.207;stroke-width:1.13311"
   sodipodi:insensitive="true" />
			<path
   style="fill:none;stroke:#000000;stroke-width:3.39933;stroke-linecap:round;stroke-linejoin:round;stroke-dasharray:none"
   d="m 48.769716,36.331857 c 0,0 -2.721421,-4.376762 -11.152455,-3.611338 -8.431035,0.765424 -20.903215,9.651812 -19.213594,23.66636 1.722574,14.287869 10.821713,28.040376 21.98806,28.210568 2.871666,0.04376 3.611099,-1.778081 8.393213,-1.77563 4.782113,0.0025 5.037017,1.745592 9.196757,1.753103 6.024316,0.01087 18.842695,-9.680474 21.906945,-26.237337 C 82.796247,42.627108 72.741908,33.558452 59.937396,33.11315 54.328188,32.918077 48.20467,37.985431 44.94259,37.817413"
   id="path25"
   sodipodi:nodetypes="czsszsssc" />
			<path
   style="fill:none;stroke:#000000;stroke-width:3.39933;stroke-linecap:round;stroke-linejoin:round;stroke-dasharray:none"
   d="m 39.207864,18.743964 c 0,0 11.445838,6.477761 9.848743,17.332385"
   id="path26"
   sodipodi:nodetypes="cc" />
			<path
   style="fill:none;stroke:#000000;stroke-width:3.39933;stroke-linecap:round;stroke-linejoin:round;stroke-dasharray:none"
   d="m 64.966545,15.494141 c 0,0 -17.507031,2.637063 -15.555027,19.88191 4.968735,-0.875372 19.902672,-9.81512 15.555027,-19.88191 z"
   id="path27"
   sodipodi:nodetypes="ccc" />
		</g>
	<path
   id="path16"
   style="display:inline;fill:#f7b733;fill-opacity:1;stroke:none;stroke-width:0.793749;stroke-linecap:round;stroke-linejoin:round"
   d="M 15.353536,4.7313597 V 16.958558 H 4.4270972 V 4.7313597 Z"
   sodipodi:nodetypes="ccccc" /><path
   d="m 180.47185,-22.834192 c -0.36,-0.016 -0.63734,-0.322674 -0.62135,-0.680008 0.016,-0.360003 0.32268,-0.637341 0.68001,-0.621346 0.0507,0.0027 0.94667,0.0053 1.99205,0.008 1.52538,0.0053 3.35741,0.01067 3.45073,0.01866 1.96536,0.197335 3.71739,1.133382 4.97877,2.525361 1.248,1.378667 2.01069,3.205376 2.01069,5.197429 v 43.088557 c 0,2.136029 -0.87198,4.074765 -2.28,5.480057 -1.4027,1.410685 -3.34403,2.282737 -5.4774,2.282737 h -30.87546 c -2.13603,0 -4.07476,-0.871984 -5.48005,-2.280006 -1.40536,-1.40536 -2.28001,-3.34669 -2.28001,-5.480057 v -43.091288 c 0,-2.13603 0.87198,-4.074766 2.28001,-5.480057 1.40536,-1.40536 3.34669,-2.280007 5.48005,-2.280007 h 4.80278 c 0.36,0 0.65334,0.29334 0.65334,0.653343 0,0.360003 -0.29334,0.653343 -0.65334,0.653343 h -4.80278 c -1.77339,0 -3.38669,0.728007 -4.55741,1.896 -1.17066,1.170656 -1.896,2.784028 -1.896,4.557419 v 43.088557 c 0,1.773391 0.72534,3.386695 1.896,4.557418 1.17065,1.170656 2.78402,1.896001 4.55741,1.896001 h 30.87273 c 1.77339,0 3.38669,-0.725345 4.55742,-1.896001 1.17065,-1.170655 1.896,-2.784027 1.896,-4.557418 l 0.003,-43.088557 c 0,-1.661364 -0.63201,-3.178683 -1.66935,-4.322714 -1.04805,-1.157344 -2.50673,-1.938668 -4.1414,-2.10135 -0.0427,-0.0053 -1.83203,-0.01066 -3.32273,-0.016 -1.07999,-0.0027 -2.00802,-0.0053 -2.05335,-0.008 z m -10.70438,-1.122663 c 0.86665,0 1.56804,-0.701315 1.56804,-1.568042 0,-0.863997 -0.70132,-1.56538 -1.56804,-1.56538 -0.86673,0 -1.56805,0.701315 -1.56805,1.568042 0,0.863997 0.70132,1.56538 1.56805,1.56538 z m -4.7894,25.4829861 h 12.82137 c 0.36,0 0.65334,-0.2933397 0.65334,-0.65334287 0,-0.36000316 -0.29334,-0.65334286 -0.65334,-0.65334286 l -12.82137,0.002662 c -0.36,0 -0.65334,0.2933397 -0.65334,0.65334287 0,0.36000326 0.29334,0.65067366 0.65334,0.65067366 z m 0,-11.7918881 h 19.45904 c 0.36001,0 0.65335,-0.29334 0.65335,-0.653343 0,-0.360003 -0.29334,-0.653343 -0.65335,-0.653343 l -19.45904,0.0027 c -0.36,0 -0.65334,0.293339 -0.65334,0.653342 0,0.360004 0.29334,0.650674 0.65334,0.650674 z m -4.01872,15.0032032 c 0.36001,0 0.65335,-0.2933397 0.65335,-0.6533429 v -6.4187388 c 0,-0.360003 -0.29334,-0.6533427 -0.65335,-0.6533427 h -6.41873 c -0.36001,0 -0.65335,0.2933397 -0.65335,0.6533427 v 6.4187388 c 0,0.3600032 0.29334,0.6533429 0.65335,0.6533429 l 6.41873,-0.00266 z m -5.76541,-1.306713 h 5.11209 v -5.1120941 h -5.11209 z m 5.76541,-10.4852437 c 0.36001,0 0.65335,-0.2933397 0.65335,-0.6533428 v -6.4187387 c 0,-0.360003 -0.29334,-0.653343 -0.65335,-0.653343 h -6.41873 c -0.36001,0 -0.65335,0.29334 -0.65335,0.653343 v 6.4187387 c 0,0.3600031 0.29334,0.6533428 0.65335,0.6533428 z m -5.76541,-1.306713 h 5.11209 v -5.1120935 h -5.11209 z m 10.1521,33.0429575 h 13.71772 c 0.36,0 0.65334,-0.29334 0.65334,-0.653343 0,-0.360004 -0.29334,-0.653343 -0.65334,-0.653343 h -13.71772 c -0.36001,0 -0.65335,0.293339 -0.65335,0.653343 0,0.360003 0.29334,0.653343 0.65335,0.653343 z m 0,-11.791889 h 19.45904 c 0.36,0 0.65334,-0.29334 0.65334,-0.653343 0,-0.360003 -0.29334,-0.653343 -0.65334,-0.653343 h -19.45904 c -0.36001,0 -0.65335,0.29334 -0.65335,0.653343 0,0.360003 0.29334,0.653343 0.65335,0.653343 z m -4.01872,15.000473 c 0.36,0 0.65334,-0.29334 0.65334,-0.653343 v -6.416076 c 0,-0.360004 -0.29334,-0.653343 -0.65334,-0.653343 h -6.41874 c -0.36,0 -0.65334,0.293339 -0.65334,0.653343 v 6.418738 c 0,0.360004 0.29334,0.653343 0.65334,0.653343 z m -5.76542,-1.306713 h 5.1121 v -5.112094 h -5.1121 z m 5.76542,-10.485244 c 0.36,0 0.65334,-0.29334 0.65334,-0.653343 V 9.026279 c 0,-0.3600032 -0.29334,-0.6533429 -0.65334,-0.6533429 h -6.41874 c -0.36,0 -0.65334,0.2933397 -0.65334,0.6533429 v 6.418739 c 0,0.360003 0.29334,0.653343 0.65334,0.653343 z m -5.76542,-1.306713 h 5.1121 V 9.6795536 h -5.1121 z m 5.3681,-41.05964 c -0.36,0 -0.65334,0.29334 -0.65334,0.653343 v 6.232095 c 0,0.360003 0.29334,0.653343 0.65334,0.653343 h 17.67793 c 0.36001,0 0.65335,-0.29334 0.65335,-0.653343 l -0.003,-6.232095 c 0,-0.360003 -0.29334,-0.653343 -0.65335,-0.653343 h -4.30674 c -0.29067,-0.871984 -0.82665,-1.634671 -1.52803,-2.200065 -0.82133,-0.666675 -1.86672,-1.066683 -3.00269,-1.066683 -1.13598,0 -2.18136,0.400008 -3.00269,1.064021 -0.69865,0.565339 -1.23469,1.328013 -1.52804,2.200065 z m 4.80277,1.306713 h -4.14938 v 4.925382 H 177.954 l -0.003,-4.925382 h -4.15205 v -0.0027 c -0.30134,0 -0.57334,-0.210668 -0.63734,-0.520009 -0.168,-0.792043 -0.60534,-1.48537 -1.21332,-1.97601 -0.59468,-0.480005 -1.35204,-0.768013 -2.18136,-0.768013 -0.82932,0 -1.58668,0.288008 -2.18136,0.768013 -0.59734,0.485342 -1.032,1.162668 -1.20534,1.936005 -0.0453,0.317336 -0.31733,0.562676 -0.64801,0.562676 z"
   fill-rule="evenodd"
   id="path1-9"
   style="display:none;opacity:0.177;stroke-width:1.13311"
   transform="matrix(0.26458333,0,0,0.26458333,-36.406214,7.8144011)"
   sodipodi:insensitive="true" /><path
   id="rect1"
   style="display:inline;fill:none;stroke:#000000;stroke-width:0.793749;stroke-linecap:round;stroke-linejoin:round"
   d="m 12.557412,3.5092924 h 1.416924 V 15.73649 H 3.0478969 V 3.5092924 l 1.4602255,0"
   sodipodi:nodetypes="cccccc" /><g
   id="g16"
   transform="matrix(1.3018289,0,0,1.3456726,-1.8377366,-0.1359814)"
   style="stroke-width:0.755534"><path
     d="M 8.511625,0.13590901 C 8.0139127,0.13596976 7.6104488,0.5394337 7.610388,1.037146 H 7.0552242 A 1.0550738,1.0550738 135 0 0 6.0001504,2.0922198 V 2.6861409 H 11.0231 V 2.0922198 A 1.0550738,1.0550738 45 0 0 9.9680262,1.037146 H 9.4133787 C 9.413318,0.53923186 9.0095391,0.13568432 8.511625,0.13590901 Z"
     style="fill:none;stroke:#000000;stroke-width:0.474351;stroke-linecap:round;stroke-linejoin:round"
     id="path3"
     inkscape:path-effect="#path-effect4"
     inkscape:original-d="M 8.511625,0.13590901 C 8.0139127,0.13596976 7.6104488,0.5394337 7.610388,1.037146 H 6.0001504 V 2.6861409 H 11.0231 V 1.037146 H 9.4133787 C 9.413318,0.53923186 9.0095391,0.13568432 8.511625,0.13590901 Z"
     transform="matrix(1.2412037,0,0,1.2877471,-2.5985571,0.28259118)" /><ellipse
     style="fill:#000000;fill-opacity:1;stroke:none;stroke-width:0.599705;stroke-linecap:round;stroke-linejoin:round;stroke-opacity:1"
     id="path4"
     cx="7.9755783"
     cy="1.6653347"
     rx="0.3703604"
     ry="0.38424835" /></g><g
   id="g14"
   transform="matrix(1.1282005,0,0,-1.1365327,-0.19988305,18.99277)"
   style="stroke-width:0.883115"><rect
     style="fill:none;fill-opacity:1;stroke:#000000;stroke-width:0.70097;stroke-linecap:round;stroke-linejoin:round;stroke-opacity:1"
     id="rect5"
     width="2.2801349"
     height="2.3707187"
     x="4.15414"
     y="8.3762207" /><path
     style="fill:none;fill-opacity:1;stroke:#000000;stroke-width:0.700969;stroke-linecap:round;stroke-linejoin:round;stroke-opacity:1"
     d="M 7.7921987,9.5615799 H 10.783891"
     id="path8" /></g><g
   id="g13"
   transform="matrix(1.1282005,0,0,1.1365327,-0.19988305,-2.2814217)"
   style="stroke-width:0.883115"><rect
     style="fill:none;fill-opacity:1;stroke:#000000;stroke-width:0.70097;stroke-linecap:round;stroke-linejoin:round;stroke-opacity:1"
     id="rect6"
     width="2.2801349"
     height="2.3707187"
     x="4.15414"
     y="12.098236" /><path
     style="fill:none;fill-opacity:1;stroke:#000000;stroke-width:0.700971;stroke-linecap:round;stroke-linejoin:round;stroke-opacity:1"
     d="M 7.7647313,13.283595 H 9.6001969"
     id="path9" /></g></g>
</svg>
