<?xml version="1.0" encoding="UTF-8" standalone="no"?>
<svg
   version="1.1"
   viewBox="-5 -10 64 64"
   id="svg2"
   xml:space="preserve"
   width="64"
   height="64"
   sodipodi:docname="groceries.svg"
   inkscape:version="1.3.2 (091e20e, 2023-11-25, custom)"
   xmlns:inkscape="http://www.inkscape.org/namespaces/inkscape"
   xmlns:sodipodi="http://sodipodi.sourceforge.net/DTD/sodipodi-0.dtd"
   xmlns="http://www.w3.org/2000/svg"
   xmlns:svg="http://www.w3.org/2000/svg"><sodipodi:namedview
   id="namedview1"
   pagecolor="#00a632"
   bordercolor="#000000"
   borderopacity="0.25"
   inkscape:showpageshadow="2"
   inkscape:pageopacity="0.0"
   inkscape:pagecheckerboard="0"
   inkscape:deskcolor="#d1d1d1"
   inkscape:zoom="11.313708"
   inkscape:cx="28.637825"
   inkscape:cy="19.931572"
   inkscape:window-width="2560"
   inkscape:window-height="1369"
   inkscape:window-x="1912"
   inkscape:window-y="-8"
   inkscape:window-maximized="1"
   inkscape:current-layer="svg2" />
  <defs
   id="defs2" />
  <g
   id="layer5"
   transform="matrix(0.53498992,0,0,0.53495555,13.559609,7.9354209)"
   style="display:inline;stroke-width:4.23893853;stroke-dasharray:none;fill:none;fill-opacity:1;stroke:#000000;stroke-opacity:1">
    <path
   id="path1-6"
   style="display:inline;fill:none;stroke:#000000;stroke-width:4.23893853;stroke-linecap:round;stroke-linejoin:round;stroke-dasharray:none;stroke-opacity:1;fill-opacity:1"
   d="m -0.03028999,-21.579858 c -0.499999,0 -0.90234,0.398441 -1.00000001,1 v 5.601562 c 0,0.601559 0.50000001,1 1.00000001,1 H 1.868148 v -7.601562 z m 3.39843799,0 v 7.800781 l 1.003906,-0.0039 c 3.999992,0 7.199218,3.20317 7.199218,7.1015625 v 2.699219 h 10.601563 v -1.199219 c 0,-3.999992 3.199227,-7.1992185 7.199219,-7.1992185 h 3 c 0.296878,0 0.499997,-0.300781 0.398437,-0.5 -0.10156,-0.09766 -0.101562,-0.09766 -0.101562,-0.199219 -1.698998,-5.10159 -6.601612,-8.5 -12,-8.5 z m 3,9.402344 c 0,0.101559 -3e-6,0.199221 -0.101563,0.300781 -0.601558,3.1015935 -2.199243,5.8007855 -4.398437,7.8007815 -0.10156,0.394528 -0.19922,0.796836 0,1.097656 0.199218,0.398438 0.800742,0.499997 1.101562,0.199219 2.699194,-1.800798 4.898439,-4.398406 5.898438,-7.5000005 -0.60156,-0.800778 -1.500002,-1.500038 -2.5,-1.898437 z m 4.302734,9.5976555 c -0.30078,0 -0.601563,0.300783 -0.601563,0.601563 L 9.96971,2.3224855 h 14.103516 v -4.300781 c 0,-0.30078 -0.300783,-0.601563 -0.601563,-0.601563 z m 0.193359,6.302735 c -0.999998,0 -1.800837,0.800763 -1.898437,1.800781 L 8.665022,17.125221 C 8.563464,21.125213 7.063437,25.024064 4.364241,28.023658 l -1.800781,2 c -1.58065499,1.889899 -2.83226399,3.981541 -3.761719,6.191406 1.75310501,-0.913246 4.23892,-1.513672 7.771485,-1.513672 0,3.535995 -0.851142,5.942208 -2.083985,7.582032 0.0528,-0.07023 0.10685,-0.137843 0.158203,-0.210938 0.466348,0.07264 0.94557,0.179183 1.435547,0.328125 1.711288,0.520191 3.070553,1.21474 4.15625,2.007813 l 0.02539,-1.460938 c 0.02349,-1.343801 0.656757,-2.558839 1.654297,-3.169922 0.433032,-0.265111 0.764579,-0.647603 0.908203,-1.046875 0.143625,-0.399264 0.0847,-0.776055 -0.160156,-1.033203 -1.484028,-1.556266 -2.253497,-3.289639 -2.22461,-5.011719 0.03186,-1.779137 0.88516,-3.455118 2.53711,-4.980468 1.949995,-1.800549 4.988111,-3.321413 8.554687,-4.283204 2.898131,-0.781533 6.023107,-1.184412 9.285156,-1.199218 1.243573,-0.0059 2.463604,0.05534 3.66211,0.162109 l -0.01758,-0.162109 h 1.58789 C 33.823274,16.308161 30.635896,10.755135 26.567366,5.8244385 l -0.5,-0.601562 c -0.800778,-0.898438 -1.898364,-1.5 -3.101562,-1.5 z m 0.28711,41.4375005 c 0.05271,0.04858 0.107206,0.0974 0.158203,0.146484 -0.05114,-0.04919 -0.105342,-0.0978 -0.158203,-0.146484 z m 0.503906,0.498047 c 0.04641,0.0495 0.0919,0.09854 0.136719,0.148437 -0.04483,-0.04983 -0.09031,-0.09901 -0.136719,-0.148437 z m 1.099609,1.427734 c 0.01785,0.02877 0.03725,0.05711 0.05469,0.08594 -0.01752,-0.02889 -0.03674,-0.0571 -0.05469,-0.08594 z m 0.898438,1.923828 c 0.01398,0.04287 0.02778,0.08614 0.04102,0.128906 -0.01335,-0.04291 -0.02692,-0.08589 -0.04102,-0.128906 z m 0.164062,0.599609 c 0.06949,0.27746 0.1264,0.551631 0.167969,0.820313 -0.04196,-0.269492 -0.0978,-0.542016 -0.167969,-0.820313 z m 0.21875,1.15625 c 0.04251,0.36375 0.07031,0.721726 0.07031,1.056641 0,-0.335412 -0.02736,-0.692392 -0.07031,-1.056641 z m -0.488281,7.933594 c -0.122442,0.71564 -0.274855,1.457106 -0.457031,2.208985 0.182398,-0.751903 0.334388,-1.493289 0.457031,-2.208985 z" />
    <path
   id="path41"
   style="display:inline;fill:none;stroke:#000000;stroke-width:4.23893853;stroke-linecap:round;stroke-linejoin:round;stroke-dasharray:none;stroke-opacity:1;fill-opacity:1"
   d="m 30.952126,71.754131 17.03125,-0.07813 c 0.283198,-0.0015 0.558918,-0.03746 0.818359,-0.107422 0.114246,-0.04015 0.23138,-0.07026 0.341797,-0.115235 1.205959,-0.494834 2.037183,-1.852513 2.064453,-3.378906 l 0.427735,-24.49414 c 0.02727,-1.550936 -0.761385,-3.010767 -2.058594,-3.810547 -0.595557,-0.366955 -0.553639,-1.192646 0.09375,-1.853516 1.395746,-1.424555 2.115578,-2.971861 2.142578,-4.597656 0.04967,-2.852524 -2.10411,-5.679645 -5.910156,-7.757813 -3.992055,-2.179829 -9.337395,-3.36478 -15.050782,-3.33789" />
    <path
   id="path42"
   style="display:inline;fill:none;stroke:#000000;stroke-width:4.23893853;stroke-linecap:round;stroke-linejoin:round;stroke-dasharray:none;stroke-opacity:1;fill-opacity:1"
   d="m -4.723526,45.553632 c 0,0 -3.771291,-10.853176 11.297664,-10.853176 0,12.896836 -11.297664,10.853176 -11.297664,10.853176 z m -0.246615,-0.03942 c 0,0 -0.491232,-7.127062 -5.97666,-8.273945 m -2.095301,4.714055 c -0.904981,0.0061 -1.867726,0.139919 -2.878332,0.44712 -6.467879,1.966082 -8.023509,6.389231 -8.023509,9.420275 0,3.031043 0.141091,19.602415 12.607854,22.201181 3.92985,0.8192 6.416998,-2.1306 6.416998,-2.1306 0,0 2.487147,2.9498 6.416997,2.1306 C 13.964669,71.424132 14.10576,54.85276 14.10576,51.821717 c 0,-3.031044 -1.555629,-7.454193 -8.023508,-9.420275 C 5.592273,42.2525 5.113957,42.145527 4.647609,42.07289 c -3.225775,4.591454 -9.371314,3.481013 -9.371314,3.481013 0,0 -0.01654,-0.04764 -0.04161,-0.131239 -0.106146,0.107871 -0.16644,0.173779 -0.16644,0.173779 0,0 -3.223452,-3.674926 -8.110347,-3.642121 z" />
    <path
   id="path43"
   style="display:inline;fill:none;stroke:#000000;stroke-width:4.23893853;stroke-linecap:round;stroke-linejoin:round;stroke-dasharray:none;stroke-opacity:1;fill-opacity:1"
   d="m 30.819319,22.222877 c -3.262053,0.01481 -6.387022,0.417684 -9.285156,1.199218 -3.56658,0.961791 -6.60469,2.482654 -8.554687,4.283204 -1.651951,1.525352 -2.50525,3.201329 -2.53711,4.980468 -0.02889,1.722081 0.740581,3.455451 2.22461,5.011719 0.244861,0.257148 0.303781,0.633938 0.160156,1.033203 -0.143624,0.399272 -0.47517,0.781763 -0.908203,1.046875 -0.997541,0.611083 -1.630807,1.82612 -1.654297,3.169922 l -0.02539,1.460938 c 3.017937,2.203926 3.867188,5.184927 3.867188,7.414062 0,2.087853 -0.06935,10.598042 -4.185547,16.542969 0.3871,1.938394 2.060235,3.476056 3.964844,3.466797 l 26.09375,-0.119141 0.0039,0.04102 h 13.34375 l 17.03125,-0.07813 c 0.283198,-0.0015 0.558918,-0.03746 0.818359,-0.107422 0.114246,-0.04015 0.23138,-0.07026 0.341797,-0.115235 1.205959,-0.494834 2.037183,-1.852513 2.064453,-3.378906 l 0.427735,-24.49414 c 0.02727,-1.550936 -0.761385,-3.010767 -2.058594,-3.810547 -0.595557,-0.366955 -0.553639,-1.192646 0.09375,-1.853516 1.395746,-1.424555 2.115578,-2.971861 2.142578,-4.597656 0.04967,-2.852524 -2.10411,-5.679645 -5.910156,-7.757813 -3.992055,-2.179829 -9.337395,-3.36478 -15.050782,-3.33789 H 34.463851 l 0.01758,0.162109 c -1.198507,-0.106765 -2.418536,-0.167962 -3.66211,-0.162109 z" />
  </g>
</svg>
