<svg xmlns="http://www.w3.org/2000/svg" xml:space="preserve" viewBox="-5 -10 50.640129 55.185036">
	<g transform="translate(-23.393096,-11.530759) translate(-12.655342,-10.076272)">
		<g fill="none" stroke="#000" stroke-linecap="round" stroke-linejoin="round" stroke-width="1.2">
			<ellipse cx="40.155876" cy="21.205711" rx="2.3240168" ry="2.254616" />
			<path d="M 46.375664,21.205711 H 62.251007" />
			<g transform="translate(5.3086853e-7,8.692179)">
				<ellipse cx="40.155876" cy="21.205711" rx="2.3240168" ry="2.254616" />
				<path d="M 46.375664,21.205711 H 62.251007" />
			</g>
			<g transform="translate(5.3086853e-7,17.384358)">
				<ellipse cx="40.155876" cy="21.205711" rx="2.3240168" ry="2.254616" />
				<path d="M 46.375664,21.205711 H 62.251007" />
			</g>
			<g transform="translate(5.3086853e-7,26.076537)">
				<ellipse cx="40.155876" cy="21.205711" rx="2.3240168" ry="2.254616" />
				<path d="m 46.058332,21.205711 h 7.87532" />
			</g>
			<path
				d="m 31.648438,12.207031 v 44.072266 h 25.044921 l -2.457031,-9.832031 14.205078,0.002 V 12.207031 Z" />
		</g>
		<circle cx="60.96402" cy="64.033394" r="2.1586716" fill="none" stroke="#000" stroke-linecap="round"
			stroke-linejoin="round" stroke-width="1.2" />
		<path fill="none" stroke="#000" stroke-linecap="round" stroke-linejoin="round" stroke-width="1.2"
			d="m 54.2365,46.447864 20.952838,0.0015 1.105494,-4.048806 4.793741,0.02579 -0.203589,1.754762 -3.30114,-0.06054 -3.562705,15.345841 -16.496984,0.132094 z" />
		<circle cx="70.445946" cy="64.033394" r="2.1586716" fill="none" stroke="#000" stroke-linecap="round"
			stroke-linejoin="round" stroke-width="1.2" />
		<path fill="none" stroke="#000" stroke-linecap="round" stroke-linejoin="round" stroke-width="1.2"
			d="m 54.2365,46.447864 20.952838,0.0015 1.105494,-4.048806 4.793741,0.02579 -0.203589,1.754762 -3.30114,-0.06054 -3.562705,15.345841 -16.496984,0.132094 z" />
	</g>
</svg>