<svg xmlns="http://www.w3.org/2000/svg" xml:space="preserve" viewBox="-5 -10 49.223248 54.476471">
	<g fill="none" stroke="#000" stroke-linecap="round" stroke-linejoin="round" stroke-width="1.2"
		transform="translate(-17.733035,-12.131602)">
		<g transform="translate(-12.333848,-10.076272)">
			<path d="m 29.637795,60.037407 h 6.457894 l -1.184776,6.046937 -5.273118,-0.05871 z" />
			<rect width="48.023247" height="3.7573202" x="25.988377" y="56.280087" transform="translate(-0.3214935)" />
			<path d="m 69.719218,60.037407 h -6.457894 l 1.184776,6.046937 5.273118,-0.05871 z" />
		</g>
		<g transform="translate(-11.528838,-10.017564)">
			<g transform="translate(-12.195817,21.677399)">
				<rect width="20" height="20" x="40.061039" y="12.807874" />
				<path d="m 47.754389,12.807874 h 4.6133 v 6.0424 l -2.227503,-1.58512 -2.385797,1.585119 z" />
			</g>
			<g transform="translate(9.8207307,21.677399)">
				<rect width="20" height="20" x="40.061039" y="12.807874" />
				<path d="m 47.754389,12.807874 h 4.6133 v 6.0424 l -2.227503,-1.58512 -2.385797,1.585119 z" />
			</g>
			<g transform="translate(-1.1265042,-0.05870813)">
				<rect width="20" height="20" x="40.061039" y="12.807874" />
				<path d="m 47.754389,12.807874 h 4.6133 v 6.0424 l -2.227503,-1.58512 -2.385797,1.585119 z" />
			</g>
		</g>
	</g>
</svg>